<svg xmlns="http://www.w3.org/2000/svg" xmlns:xlink="http://www.w3.org/1999/xlink" width="1080" zoomAndPan="magnify" viewBox="0 0 810 809.999993" height="1080" preserveAspectRatio="xMidYMid meet" version="1.2"><defs><clipPath id="68bdf76ef4"><path d="M 23 81 L 787.246094 81 L 787.246094 738 L 23 738 Z M 23 81 "/></clipPath></defs><g id="c2f34d14e2"><g clip-rule="nonzero" clip-path="url(#68bdf76ef4)"><path style=" stroke:none;fill-rule:nonzero;fill:#ff0000;fill-opacity:1;" d="M 730.277344 137.789062 C 654.636719 62.148438 531.015625 62.148438 455.566406 137.789062 L 405.074219 188.28125 L 354.582031 137.789062 C 278.941406 62.148438 155.320312 62.148438 79.875 137.789062 C 6.554688 211.109375 4.425781 329.699219 73.296875 405.726562 L 251.082031 405.726562 L 277.007812 270.5 C 278.167969 264.117188 283.582031 259.472656 290.160156 259.085938 C 296.738281 258.699219 302.542969 262.957031 304.285156 269.148438 L 367.542969 484.464844 L 401.980469 344.59375 C 403.527344 338.597656 408.75 334.148438 414.941406 333.953125 C 421.132812 333.566406 426.742188 337.4375 428.871094 343.433594 L 455.761719 419.851562 L 505.285156 268.761719 C 507.21875 262.957031 512.832031 258.894531 519.019531 259.085938 C 525.210938 259.28125 530.628906 263.34375 532.175781 269.339844 L 569.902344 405.726562 L 736.855469 405.726562 C 805.917969 329.699219 803.597656 211.109375 730.277344 137.789062 Z M 545.523438 423.527344 L 517.28125 321.765625 L 469.304688 468.019531 C 467.367188 473.824219 462.144531 477.695312 456.148438 477.695312 L 455.953125 477.695312 C 449.957031 477.695312 444.734375 474.019531 442.605469 468.214844 L 417.648438 397.214844 L 382.054688 541.726562 C 380.507812 547.917969 375.089844 552.367188 368.703125 552.367188 L 368.316406 552.367188 C 362.128906 552.367188 356.515625 548.304688 354.777344 542.308594 L 293.449219 332.601562 L 276.234375 422.363281 C 274.878906 428.941406 269.074219 433.777344 262.496094 433.777344 L 100.765625 433.777344 L 404.882812 737.894531 L 679.589844 463.183594 L 708.996094 433.777344 L 558.875 433.777344 C 552.683594 433.777344 547.265625 429.523438 545.523438 423.527344 Z M 545.523438 423.527344 "/></g></g></svg>