<svg xmlns="http://www.w3.org/2000/svg" xmlns:xlink="http://www.w3.org/1999/xlink" width="1080" zoomAndPan="magnify" viewBox="0 0 810 809.999993" height="1080" preserveAspectRatio="xMidYMid meet" version="1.2"><defs><clipPath id="5c0fc848c0"><path d="M 145.464844 181.796875 L 664.464844 181.796875 L 664.464844 628 L 145.464844 628 Z M 145.464844 181.796875 "/></clipPath></defs><g id="a250804c5b"><rect x="0" width="810" y="0" height="809.999993" style="fill:#ffffff;fill-opacity:1;stroke:none;"/><rect x="0" width="810" y="0" height="809.999993" style="fill:#ffffff;fill-opacity:1;stroke:none;"/><g clip-rule="nonzero" clip-path="url(#5c0fc848c0)"><path style=" stroke:none;fill-rule:nonzero;fill:#ff0000;fill-opacity:1;" d="M 625.855469 220.375 C 574.480469 168.996094 490.515625 168.996094 439.269531 220.375 L 404.976562 254.667969 L 370.679688 220.375 C 319.304688 168.996094 235.339844 168.996094 184.09375 220.375 C 134.292969 270.175781 132.847656 350.722656 179.628906 402.359375 L 300.382812 402.359375 L 317.988281 310.511719 C 318.777344 306.175781 322.457031 303.023438 326.925781 302.761719 C 331.390625 302.5 335.335938 305.390625 336.515625 309.59375 L 379.484375 455.839844 L 402.875 360.839844 C 403.925781 356.765625 407.472656 353.742188 411.675781 353.613281 C 415.882812 353.347656 419.691406 355.976562 421.136719 360.050781 L 439.402344 411.953125 L 473.039062 309.332031 C 474.355469 305.390625 478.164062 302.628906 482.371094 302.761719 C 486.574219 302.890625 490.253906 305.652344 491.304688 309.726562 L 516.925781 402.359375 L 630.324219 402.359375 C 677.234375 350.722656 675.65625 270.175781 625.855469 220.375 Z M 500.371094 414.449219 L 481.1875 345.335938 L 448.601562 444.671875 C 447.285156 448.613281 443.738281 451.242188 439.664062 451.242188 L 439.535156 451.242188 C 435.460938 451.242188 431.914062 448.746094 430.46875 444.804688 L 413.515625 396.578125 L 389.339844 494.734375 C 388.289062 498.9375 384.609375 501.960938 380.273438 501.960938 L 380.011719 501.960938 C 375.804688 501.960938 371.996094 499.203125 370.8125 495.128906 L 329.160156 352.691406 L 317.464844 413.660156 C 316.542969 418.128906 312.601562 421.414062 308.136719 421.414062 L 198.285156 421.414062 L 404.84375 627.972656 L 611.402344 421.414062 L 509.4375 421.414062 C 505.234375 421.414062 501.554688 418.523438 500.371094 414.449219 Z M 500.371094 414.449219 "/></g></g></svg>